<svg xmlns="http://www.w3.org/2000/svg" xmlns:xlink="http://www.w3.org/1999/xlink" width="500" zoomAndPan="magnify" viewBox="0 0 375 374.999991" height="500" preserveAspectRatio="xMidYMid meet" version="1.0"><defs><g/></defs><g fill="#ffffff" fill-opacity="1"><g transform="translate(14.019664, 283.33669)"><g><path d="M 164.984375 -107.9375 C 164.984375 -107.9375 162.785156 -107.789062 158.390625 -107.5 C 154.003906 -107.207031 148.59375 -107.398438 142.15625 -108.078125 C 135.726562 -108.765625 129.296875 -110.421875 122.859375 -113.046875 C 116.421875 -115.679688 111.007812 -119.828125 106.625 -125.484375 C 102.238281 -131.140625 99.945312 -138.941406 99.75 -148.890625 C 99.550781 -156.296875 100.863281 -162.484375 103.6875 -167.453125 C 106.519531 -172.429688 110.082031 -176.484375 114.375 -179.609375 L 112.90625 -182.828125 C 103.351562 -181.265625 95.648438 -177.066406 89.796875 -170.234375 C 83.953125 -163.410156 80.832031 -155.710938 80.4375 -147.140625 C 80.050781 -139.722656 81.5625 -132.359375 84.96875 -125.046875 C 88.382812 -117.734375 93.601562 -111.6875 100.625 -106.90625 C 107.644531 -102.132812 116.128906 -99.550781 126.078125 -99.15625 L 126.078125 -93.3125 C 118.078125 -93.113281 110.566406 -91.503906 103.546875 -88.484375 C 96.523438 -85.460938 90.820312 -81.171875 86.4375 -75.609375 C 82.050781 -70.054688 79.757812 -63.1875 79.5625 -55 C 79.5625 -48.164062 80.925781 -41.429688 83.65625 -34.796875 C 86.382812 -28.171875 90.285156 -22.421875 95.359375 -17.546875 C 100.429688 -12.671875 106.378906 -9.453125 113.203125 -7.890625 L 114.671875 -11.109375 C 110.378906 -14.234375 106.816406 -18.28125 103.984375 -23.25 C 101.160156 -28.226562 99.75 -34.421875 99.75 -41.828125 C 99.550781 -50.796875 101.207031 -57.960938 104.71875 -63.328125 C 108.226562 -68.691406 112.757812 -72.785156 118.3125 -75.609375 C 123.875 -78.441406 129.726562 -80.394531 135.875 -81.46875 C 142.019531 -82.539062 147.722656 -83.125 152.984375 -83.21875 C 158.253906 -83.3125 162.347656 -83.359375 165.265625 -83.359375 L 164.984375 -0.296875 L 58.5 -0.296875 C 45.238281 -0.296875 34.515625 -3.023438 26.328125 -8.484375 C 18.140625 -13.941406 12.382812 -20.863281 9.0625 -29.25 C 5.75 -37.632812 4.875 -46.359375 6.4375 -55.421875 C 8 -64.492188 11.945312 -72.734375 18.28125 -80.140625 C 24.613281 -87.554688 33.242188 -92.921875 44.171875 -96.234375 C 33.441406 -99.546875 25.203125 -104.859375 19.453125 -112.171875 C 13.703125 -119.492188 10.335938 -127.585938 9.359375 -136.453125 C 8.378906 -145.328125 9.546875 -153.859375 12.859375 -162.046875 C 16.179688 -170.242188 21.691406 -177.019531 29.390625 -182.375 C 37.097656 -187.738281 46.800781 -190.421875 58.5 -190.421875 L 165.265625 -190.421875 Z M 164.984375 -107.9375 "/></g></g></g><g fill="#ffffff" fill-opacity="1"><g transform="translate(185.143123, 283.33669)"><g><path d="M 70.78125 -190.421875 L 169.953125 -190.421875 L 170.25 -112.625 C 170.25 -112.625 168.148438 -112.472656 163.953125 -112.171875 C 159.765625 -111.878906 154.546875 -112.023438 148.296875 -112.609375 C 142.054688 -113.203125 135.816406 -114.765625 129.578125 -117.296875 C 123.335938 -119.828125 118.070312 -123.773438 113.78125 -129.140625 C 109.5 -134.503906 107.257812 -141.867188 107.0625 -151.234375 C 106.863281 -159.617188 108.519531 -165.953125 112.03125 -170.234375 C 115.539062 -174.523438 119.832031 -178.039062 124.90625 -180.78125 L 124.3125 -184 C 117.289062 -184.382812 110.367188 -183.695312 103.546875 -181.9375 C 96.722656 -180.1875 91.019531 -177.019531 86.4375 -172.4375 C 81.851562 -167.851562 79.460938 -161.46875 79.265625 -153.28125 C 79.078125 -146.257812 80.882812 -140.066406 84.6875 -134.703125 C 88.488281 -129.335938 93.410156 -124.609375 99.453125 -120.515625 C 105.492188 -116.421875 111.734375 -112.710938 118.171875 -109.390625 C 124.609375 -106.078125 130.265625 -103.054688 135.140625 -100.328125 C 148.597656 -92.921875 158.394531 -84.535156 164.53125 -75.171875 C 170.675781 -65.816406 172.675781 -54.992188 170.53125 -42.703125 C 169.363281 -35.679688 166.878906 -28.953125 163.078125 -22.515625 C 159.273438 -16.085938 153.71875 -10.773438 146.40625 -6.578125 C 139.09375 -2.390625 129.679688 -0.296875 118.171875 -0.296875 L 8.484375 -0.296875 L 8.1875 -82.78125 C 8.1875 -82.78125 9.796875 -82.875 13.015625 -83.0625 C 16.234375 -83.257812 20.328125 -83.257812 25.296875 -83.0625 C 30.273438 -82.875 35.59375 -82.144531 41.25 -80.875 C 46.90625 -79.613281 52.265625 -77.519531 57.328125 -74.59375 C 62.398438 -71.664062 66.59375 -67.566406 69.90625 -62.296875 C 73.226562 -57.035156 74.890625 -50.210938 74.890625 -41.828125 C 75.078125 -33.441406 73.5625 -26.90625 70.34375 -22.21875 C 67.132812 -17.539062 62.894531 -13.742188 57.625 -10.828125 L 58.5 -7.609375 C 66.101562 -7.796875 72.925781 -8.71875 78.96875 -10.375 C 85.019531 -12.039062 89.945312 -15.113281 93.75 -19.59375 C 97.550781 -24.082031 99.550781 -30.617188 99.75 -39.203125 C 99.164062 -48.953125 96.382812 -57.039062 91.40625 -63.46875 C 86.4375 -69.90625 80.242188 -75.316406 72.828125 -79.703125 C 65.421875 -84.097656 57.625 -88.242188 49.4375 -92.140625 C 41.25 -96.046875 33.59375 -100.238281 26.46875 -104.71875 C 19.351562 -109.207031 13.695312 -114.765625 9.5 -121.390625 C 5.3125 -128.023438 3.410156 -136.410156 3.796875 -146.546875 C 4.191406 -156.492188 6.4375 -164.390625 10.53125 -170.234375 C 14.625 -176.085938 19.890625 -180.476562 26.328125 -183.40625 C 32.765625 -186.332031 39.832031 -188.234375 47.53125 -189.109375 C 55.238281 -189.984375 62.988281 -190.421875 70.78125 -190.421875 Z M 70.78125 -190.421875 "/></g></g></g></svg>